<mxfile host="65bd71144e">
    <diagram id="Combined_TopView" name="NXP S32G + ORIN Top View">
        <mxGraphModel dx="2374" dy="1111" grid="1" gridSize="10" guides="1" tooltips="1" connect="1" arrows="1" fold="1" page="1" pageScale="1" pageWidth="1200" pageHeight="800" math="0" shadow="0">
            <root>
                <mxCell id="0"/>
                <mxCell id="1" parent="0"/>
                <mxCell id="29" value="" style="rounded=1;whiteSpace=wrap;html=1;" vertex="1" parent="1">
                    <mxGeometry x="-60" y="60" width="1050" height="640" as="geometry"/>
                </mxCell>
                <mxCell id="title" value="DreamKIT internal connection" style="text;html=1;strokeColor=none;fillColor=none;align=center;verticalAlign=middle;whiteSpace=wrap;rounded=0;fontSize=20;fontStyle=1;" parent="1" vertex="1">
                    <mxGeometry x="210" y="90" width="600" height="40" as="geometry"/>
                </mxCell>
                <mxCell id="s32g_device" value="" style="rounded=1;whiteSpace=wrap;html=1;strokeWidth=4;fillColor=#f0f0f0;strokeColor=#333333;" parent="1" vertex="1">
                    <mxGeometry x="100" y="150" width="400" height="250" as="geometry"/>
                </mxCell>
                <mxCell id="s32g_label" value="NXP S32G EVALUATION BOARD" style="text;html=1;strokeColor=none;fillColor=none;align=center;verticalAlign=middle;whiteSpace=wrap;rounded=0;fontSize=16;fontStyle=1;" parent="1" vertex="1">
                    <mxGeometry x="200" y="180" width="200" height="30" as="geometry"/>
                </mxCell>
                <mxCell id="s32g_board" value="" style="rounded=0;whiteSpace=wrap;html=1;strokeWidth=2;fillColor=#e8e8e8;strokeColor=#666666;" parent="1" vertex="1">
                    <mxGeometry x="120" y="220" width="360" height="160" as="geometry"/>
                </mxCell>
                <mxCell id="s32g_port_section" value="" style="rounded=0;whiteSpace=wrap;html=1;strokeWidth=2;fillColor=#B3B3B3;" parent="1" vertex="1">
                    <mxGeometry x="80" y="240" width="40" height="150" as="geometry"/>
                </mxCell>
                <mxCell id="s32g_reset" value="" style="ellipse;whiteSpace=wrap;html=1;strokeWidth=2;" parent="1" vertex="1">
                    <mxGeometry x="83" y="245" width="15" height="15" as="geometry"/>
                </mxCell>
                <mxCell id="s32g_por" value="" style="ellipse;whiteSpace=wrap;html=1;strokeWidth=2;" parent="1" vertex="1">
                    <mxGeometry x="102" y="245" width="15" height="15" as="geometry"/>
                </mxCell>
                <mxCell id="s32g_usb" value="" style="rounded=0;whiteSpace=wrap;html=1;strokeWidth=2;" parent="1" vertex="1">
                    <mxGeometry x="85" y="270" width="30" height="15" as="geometry"/>
                </mxCell>
                <mxCell id="s32g_uart1" value="" style="rounded=0;whiteSpace=wrap;html=1;strokeWidth=2;" parent="1" vertex="1">
                    <mxGeometry x="85" y="295" width="30" height="15" as="geometry"/>
                </mxCell>
                <mxCell id="s32g_uart2" value="" style="rounded=0;whiteSpace=wrap;html=1;strokeWidth=2;" parent="1" vertex="1">
                    <mxGeometry x="85" y="320" width="30" height="15" as="geometry"/>
                </mxCell>
                <mxCell id="10" style="edgeStyle=orthogonalEdgeStyle;html=1;exitX=0;exitY=0.5;exitDx=0;exitDy=0;entryX=0;entryY=0.5;entryDx=0;entryDy=0;endArrow=none;endFill=0;strokeWidth=3;strokeColor=#000000;" edge="1" parent="1" source="s32g_can" target="can_adapter">
                    <mxGeometry relative="1" as="geometry">
                        <Array as="points">
                            <mxPoint x="20" y="353"/>
                            <mxPoint x="20" y="435"/>
                        </Array>
                    </mxGeometry>
                </mxCell>
                <mxCell id="s32g_can" value="" style="rounded=0;whiteSpace=wrap;html=1;strokeWidth=2;" parent="1" vertex="1">
                    <mxGeometry x="85" y="345" width="30" height="15" as="geometry"/>
                </mxCell>
                <mxCell id="s32g_ethernet_section" value="" style="rounded=0;whiteSpace=wrap;html=1;strokeWidth=2;fillColor=#999999;strokeColor=#000000;" parent="1" vertex="1">
                    <mxGeometry x="480" y="280" width="40" height="40" as="geometry"/>
                </mxCell>
                <mxCell id="s32g_ethernet" value="" style="rounded=0;whiteSpace=wrap;html=1;strokeWidth=0;" parent="1" vertex="1">
                    <mxGeometry x="485" y="285" width="30" height="30" as="geometry"/>
                </mxCell>
                <mxCell id="s32g_reset_label" value="RESET_B" style="text;html=1;strokeColor=none;fillColor=none;align=left;verticalAlign=middle;whiteSpace=wrap;rounded=0;fontSize=9;fontStyle=1;" parent="1" vertex="1">
                    <mxGeometry x="30" y="240" width="45" height="15" as="geometry"/>
                </mxCell>
                <mxCell id="s32g_por_label" value="POR_B" style="text;html=1;strokeColor=none;fillColor=none;align=left;verticalAlign=middle;whiteSpace=wrap;rounded=0;fontSize=9;fontStyle=1;" parent="1" vertex="1">
                    <mxGeometry x="30" y="230" width="35" height="15" as="geometry"/>
                </mxCell>
                <mxCell id="s32g_usb_label" value="USB" style="text;html=1;strokeColor=none;fillColor=none;align=left;verticalAlign=middle;whiteSpace=wrap;rounded=0;fontSize=9;fontStyle=1;" parent="1" vertex="1">
                    <mxGeometry x="47" y="269" width="40" height="15" as="geometry"/>
                </mxCell>
                <mxCell id="s32g_uart1_label" value="UART1" style="text;html=1;strokeColor=none;fillColor=none;align=left;verticalAlign=middle;whiteSpace=wrap;rounded=0;fontSize=9;fontStyle=1;" parent="1" vertex="1">
                    <mxGeometry x="43" y="293" width="40" height="15" as="geometry"/>
                </mxCell>
                <mxCell id="s32g_uart2_label" value="UART2" style="text;html=1;strokeColor=none;fillColor=none;align=left;verticalAlign=middle;whiteSpace=wrap;rounded=0;fontSize=9;fontStyle=1;" parent="1" vertex="1">
                    <mxGeometry x="43" y="318" width="40" height="15" as="geometry"/>
                </mxCell>
                <mxCell id="s32g_can_label" value="CAN/FlexRay" style="text;html=1;strokeColor=none;fillColor=none;align=left;verticalAlign=middle;whiteSpace=wrap;rounded=0;fontSize=9;fontStyle=1;" parent="1" vertex="1">
                    <mxGeometry x="19" y="335" width="70" height="15" as="geometry"/>
                </mxCell>
                <mxCell id="orin_device" value="" style="rounded=1;whiteSpace=wrap;html=1;strokeWidth=4;fillColor=#f5f5f5;strokeColor=#333333;" parent="1" vertex="1">
                    <mxGeometry x="658" y="150" width="242" height="250" as="geometry"/>
                </mxCell>
                <mxCell id="orin_label" value="NVIDIA JETSON ORIN" style="text;html=1;strokeColor=none;fillColor=none;align=center;verticalAlign=middle;whiteSpace=wrap;rounded=0;fontSize=16;fontStyle=1;" parent="1" vertex="1">
                    <mxGeometry x="690" y="180" width="200" height="30" as="geometry"/>
                </mxCell>
                <mxCell id="orin_board" value="" style="rounded=0;whiteSpace=wrap;html=1;strokeWidth=2;fillColor=#e8e8e8;strokeColor=#666666;" parent="1" vertex="1">
                    <mxGeometry x="678" y="220" width="202" height="160" as="geometry"/>
                </mxCell>
                <mxCell id="orin_heatsink" value="" style="rounded=0;whiteSpace=wrap;html=1;strokeWidth=2;fillColor=#cccccc;strokeColor=#999999;" parent="1" vertex="1">
                    <mxGeometry x="698" y="240" width="162" height="120" as="geometry"/>
                </mxCell>
                <mxCell id="orin_port_section" value="" style="rounded=0;whiteSpace=wrap;html=1;strokeWidth=2;fillColor=#B3B3B3;strokeColor=#000000;" parent="1" vertex="1">
                    <mxGeometry x="638" y="240" width="40" height="120" as="geometry"/>
                </mxCell>
                <mxCell id="12" style="edgeStyle=orthogonalEdgeStyle;html=1;exitX=0;exitY=0.5;exitDx=0;exitDy=0;endArrow=none;endFill=0;strokeWidth=3;" edge="1" parent="1" source="orin_power">
                    <mxGeometry relative="1" as="geometry">
                        <mxPoint x="570" y="419" as="targetPoint"/>
                    </mxGeometry>
                </mxCell>
                <mxCell id="orin_power" value="" style="ellipse;whiteSpace=wrap;html=1;strokeWidth=2;fillColor=#f9f7ed;strokeColor=#36393d;" parent="1" vertex="1">
                    <mxGeometry x="643" y="250" width="20" height="20" as="geometry"/>
                </mxCell>
                <mxCell id="orin_ethernet" value="" style="rounded=0;whiteSpace=wrap;html=1;strokeWidth=2;fillColor=#f9f7ed;strokeColor=#36393d;" parent="1" vertex="1">
                    <mxGeometry x="643" y="280" width="30" height="26" as="geometry"/>
                </mxCell>
                <mxCell id="orin_usb1" value="" style="rounded=0;whiteSpace=wrap;html=1;strokeWidth=2;fillColor=#f9f7ed;strokeColor=#36393d;" parent="1" vertex="1">
                    <mxGeometry x="643" y="310" width="30" height="10" as="geometry"/>
                </mxCell>
                <mxCell id="orin_usb2" value="" style="rounded=0;whiteSpace=wrap;html=1;strokeWidth=2;fillColor=#f9f7ed;strokeColor=#36393d;" parent="1" vertex="1">
                    <mxGeometry x="643" y="325" width="30" height="10" as="geometry"/>
                </mxCell>
                <mxCell id="orin_power_label" value="DC Power" style="text;html=1;strokeColor=none;fillColor=none;align=right;verticalAlign=middle;whiteSpace=wrap;rounded=0;fontSize=9;fontStyle=1;" parent="1" vertex="1">
                    <mxGeometry x="578" y="240" width="60" height="15" as="geometry"/>
                </mxCell>
                <mxCell id="orin_ethernet_label" value="Ethernet" style="text;html=1;strokeColor=none;fillColor=none;align=right;verticalAlign=middle;whiteSpace=wrap;rounded=0;fontSize=9;fontStyle=1;" parent="1" vertex="1">
                    <mxGeometry x="575" y="275" width="60" height="15" as="geometry"/>
                </mxCell>
                <mxCell id="orin_usb_label" value="USB-A (2x)" style="text;html=1;strokeColor=none;fillColor=none;align=right;verticalAlign=middle;whiteSpace=wrap;rounded=0;fontSize=9;fontStyle=1;" parent="1" vertex="1">
                    <mxGeometry x="565" y="315" width="70" height="15" as="geometry"/>
                </mxCell>
                <mxCell id="orin_dp_label" value="DisplayPort" style="text;html=1;strokeColor=none;fillColor=none;align=right;verticalAlign=middle;whiteSpace=wrap;rounded=0;fontSize=9;fontStyle=1;" parent="1" vertex="1">
                    <mxGeometry x="593" y="365" width="80" height="15" as="geometry"/>
                </mxCell>
                <mxCell id="main_ethernet_cable" value="" style="endArrow=none;html=1;strokeWidth=4;exitX=1;exitY=0.25;exitDx=0;exitDy=0;entryX=0;entryY=0.5;entryDx=0;entryDy=0;" parent="1" edge="1">
                    <mxGeometry width="50" height="50" relative="1" as="geometry">
                        <mxPoint x="520" y="292" as="sourcePoint"/>
                        <mxPoint x="643.0000000000002" y="292" as="targetPoint"/>
                    </mxGeometry>
                </mxCell>
                <mxCell id="can_adapter" value="" style="rounded=1;whiteSpace=wrap;html=1;strokeWidth=2;fillColor=#E6E6E6;strokeColor=#36393d;" parent="1" vertex="1">
                    <mxGeometry x="73" y="420" width="837" height="30" as="geometry"/>
                </mxCell>
                <mxCell id="can_adapter_label" value="&lt;font style=&quot;font-size: 15px;&quot;&gt;DreamKIT internal circuit&lt;/font&gt;" style="text;html=1;strokeColor=none;fillColor=none;align=center;verticalAlign=middle;whiteSpace=wrap;rounded=0;fontSize=9;fontStyle=1;" parent="1" vertex="1">
                    <mxGeometry x="240" y="425" width="560" height="20" as="geometry"/>
                </mxCell>
                <mxCell id="3" value="Ethernet" style="text;html=1;strokeColor=none;fillColor=none;align=right;verticalAlign=middle;whiteSpace=wrap;rounded=0;fontSize=9;fontStyle=1;" vertex="1" parent="1">
                    <mxGeometry x="500" y="275" width="60" height="15" as="geometry"/>
                </mxCell>
                <mxCell id="4" value="" style="ellipse;whiteSpace=wrap;html=1;strokeWidth=2;" vertex="1" parent="1">
                    <mxGeometry x="89" y="368" width="20" height="20" as="geometry"/>
                </mxCell>
                <mxCell id="5" value="DC Power" style="text;html=1;strokeColor=none;fillColor=none;align=right;verticalAlign=middle;whiteSpace=wrap;rounded=0;fontSize=9;fontStyle=1;" vertex="1" parent="1">
                    <mxGeometry x="14" y="368" width="60" height="15" as="geometry"/>
                </mxCell>
                <mxCell id="8" style="edgeStyle=none;html=1;exitX=0.5;exitY=1;exitDx=0;exitDy=0;endArrow=none;endFill=0;strokeWidth=3;entryX=0.029;entryY=0.043;entryDx=0;entryDy=0;entryPerimeter=0;" edge="1" parent="1" source="4" target="can_adapter">
                    <mxGeometry relative="1" as="geometry">
                        <mxPoint x="100" y="420" as="targetPoint"/>
                    </mxGeometry>
                </mxCell>
                <mxCell id="14" style="edgeStyle=orthogonalEdgeStyle;html=1;exitX=0;exitY=0.5;exitDx=0;exitDy=0;endArrow=none;endFill=0;strokeWidth=3;" edge="1" parent="1">
                    <mxGeometry relative="1" as="geometry">
                        <mxPoint x="641" y="315" as="sourcePoint"/>
                        <mxPoint x="581" y="420" as="targetPoint"/>
                        <Array as="points">
                            <mxPoint x="581" y="315"/>
                        </Array>
                    </mxGeometry>
                </mxCell>
                <mxCell id="15" style="edgeStyle=orthogonalEdgeStyle;html=1;exitX=0;exitY=0.5;exitDx=0;exitDy=0;endArrow=none;endFill=0;strokeWidth=3;" edge="1" parent="1">
                    <mxGeometry relative="1" as="geometry">
                        <mxPoint x="643" y="330" as="sourcePoint"/>
                        <mxPoint x="600" y="420" as="targetPoint"/>
                        <Array as="points">
                            <mxPoint x="600" y="330"/>
                            <mxPoint x="600" y="421"/>
                        </Array>
                    </mxGeometry>
                </mxCell>
                <mxCell id="16" style="edgeStyle=orthogonalEdgeStyle;html=1;exitX=0;exitY=0.5;exitDx=0;exitDy=0;endArrow=none;endFill=0;strokeWidth=3;fillColor=#cdeb8b;strokeColor=light-dark(#373e39, #babdc0);" edge="1" parent="1">
                    <mxGeometry relative="1" as="geometry">
                        <mxPoint x="658" y="350" as="sourcePoint"/>
                        <mxPoint x="615" y="420" as="targetPoint"/>
                        <Array as="points">
                            <mxPoint x="615" y="350"/>
                        </Array>
                    </mxGeometry>
                </mxCell>
                <mxCell id="orin_displayport" value="" style="rounded=0;whiteSpace=wrap;html=1;strokeWidth=2;fillColor=#f9f7ed;strokeColor=#36393d;" parent="1" vertex="1">
                    <mxGeometry x="643" y="340" width="30" height="15" as="geometry"/>
                </mxCell>
                <mxCell id="17" value="&lt;font style=&quot;font-size: 26px;&quot;&gt;IVI&lt;/font&gt;" style="rounded=1;whiteSpace=wrap;html=1;strokeWidth=4;fillColor=#f5f5f5;strokeColor=#333333;" vertex="1" parent="1">
                    <mxGeometry x="540" y="490" width="270" height="160" as="geometry"/>
                </mxCell>
                <mxCell id="18" value="" style="rounded=0;whiteSpace=wrap;html=1;strokeWidth=2;fillColor=#B3B3B3;strokeColor=#000000;" vertex="1" parent="1">
                    <mxGeometry x="509" y="510" width="40" height="120" as="geometry"/>
                </mxCell>
                <mxCell id="19" value="&lt;font style=&quot;font-size: 8px;&quot;&gt;HDMI&lt;/font&gt;" style="rounded=0;whiteSpace=wrap;html=1;strokeWidth=2;fillColor=#f9f7ed;strokeColor=#36393d;" vertex="1" parent="1">
                    <mxGeometry x="514" y="530" width="30" height="15" as="geometry"/>
                </mxCell>
                <mxCell id="20" value="&lt;font style=&quot;font-size: 7px;&quot;&gt;USB-C&lt;/font&gt;" style="rounded=1;whiteSpace=wrap;html=1;arcSize=50;" vertex="1" parent="1">
                    <mxGeometry x="514.5" y="560" width="27.5" height="10" as="geometry"/>
                </mxCell>
                <mxCell id="21" value="&lt;font style=&quot;font-size: 5px;&quot;&gt;AUDIO&lt;/font&gt;" style="ellipse;whiteSpace=wrap;html=1;strokeWidth=2;fillColor=#f9f7ed;strokeColor=#36393d;" vertex="1" parent="1">
                    <mxGeometry x="518" y="583" width="20" height="20" as="geometry"/>
                </mxCell>
                <mxCell id="22" value="" style="ellipse;whiteSpace=wrap;html=1;strokeWidth=2;fillColor=#f9f7ed;strokeColor=#36393d;" vertex="1" parent="1">
                    <mxGeometry x="648" y="255" width="10" height="10" as="geometry"/>
                </mxCell>
                <mxCell id="23" value="" style="ellipse;whiteSpace=wrap;html=1;strokeWidth=2;" vertex="1" parent="1">
                    <mxGeometry x="94" y="372" width="11" height="12" as="geometry"/>
                </mxCell>
                <mxCell id="24" value="" style="endArrow=none;html=1;exitX=0;exitY=0.5;exitDx=0;exitDy=0;entryX=0.355;entryY=1;entryDx=0;entryDy=0;entryPerimeter=0;endFill=0;edgeStyle=orthogonalEdgeStyle;strokeWidth=3;" edge="1" parent="1" source="19" target="can_adapter">
                    <mxGeometry width="50" height="50" relative="1" as="geometry">
                        <mxPoint x="480" y="450" as="sourcePoint"/>
                        <mxPoint x="530" y="400" as="targetPoint"/>
                    </mxGeometry>
                </mxCell>
                <mxCell id="27" value="" style="endArrow=none;html=1;exitX=0;exitY=0.5;exitDx=0;exitDy=0;entryX=0.342;entryY=0.983;entryDx=0;entryDy=0;entryPerimeter=0;endFill=0;edgeStyle=orthogonalEdgeStyle;strokeWidth=3;" edge="1" parent="1" target="can_adapter">
                    <mxGeometry width="50" height="50" relative="1" as="geometry">
                        <mxPoint x="514" y="566" as="sourcePoint"/>
                        <mxPoint x="370" y="478" as="targetPoint"/>
                        <Array as="points">
                            <mxPoint x="514" y="567"/>
                            <mxPoint x="360" y="567"/>
                            <mxPoint x="360" y="478"/>
                            <mxPoint x="359" y="478"/>
                        </Array>
                    </mxGeometry>
                </mxCell>
                <mxCell id="28" value="" style="endArrow=none;html=1;exitX=0;exitY=0.5;exitDx=0;exitDy=0;entryX=0.319;entryY=1;entryDx=0;entryDy=0;entryPerimeter=0;endFill=0;edgeStyle=orthogonalEdgeStyle;strokeWidth=3;" edge="1" parent="1" target="can_adapter">
                    <mxGeometry width="50" height="50" relative="1" as="geometry">
                        <mxPoint x="517.97" y="595.49" as="sourcePoint"/>
                        <mxPoint x="362.97" y="478.49" as="targetPoint"/>
                        <Array as="points">
                            <mxPoint x="340" y="595"/>
                        </Array>
                    </mxGeometry>
                </mxCell>
                <mxCell id="30" value="" style="rounded=1;whiteSpace=wrap;html=1;fillColor=none;dashed=1;dashPattern=8 8;strokeWidth=1;perimeterSpacing=2;" vertex="1" parent="1">
                    <mxGeometry x="-35" y="210" width="205" height="280" as="geometry"/>
                </mxCell>
                <mxCell id="31" value="" style="rounded=1;whiteSpace=wrap;html=1;fillColor=none;dashed=1;dashPattern=8 8;strokeWidth=1;perimeterSpacing=2;" vertex="1" parent="1">
                    <mxGeometry x="468" y="200" width="242" height="210" as="geometry"/>
                </mxCell>
                <mxCell id="32" value="" style="rounded=1;whiteSpace=wrap;html=1;fillColor=none;dashed=1;dashPattern=8 8;strokeWidth=1;perimeterSpacing=2;" vertex="1" parent="1">
                    <mxGeometry x="407.5" y="470" width="212.5" height="210" as="geometry"/>
                </mxCell>
                <mxCell id="34" value="&lt;font style=&quot;font-size: 18px; color: rgb(255, 255, 255);&quot;&gt;1&lt;/font&gt;" style="ellipse;whiteSpace=wrap;html=1;aspect=fixed;fillColor=#4D4D4D;strokeColor=#FFFFFF;" vertex="1" parent="1">
                    <mxGeometry x="-21" y="440" width="40" height="40" as="geometry"/>
                </mxCell>
                <mxCell id="35" value="&lt;font style=&quot;font-size: 18px; color: rgb(255, 255, 255);&quot;&gt;2&lt;/font&gt;" style="ellipse;whiteSpace=wrap;html=1;aspect=fixed;fillColor=#4D4D4D;strokeColor=#FFFFFF;" vertex="1" parent="1">
                    <mxGeometry x="518" y="215" width="40" height="40" as="geometry"/>
                </mxCell>
                <mxCell id="36" value="&lt;font style=&quot;font-size: 18px; color: rgb(255, 255, 255);&quot;&gt;3&lt;/font&gt;" style="ellipse;whiteSpace=wrap;html=1;aspect=fixed;fillColor=#4D4D4D;strokeColor=#FFFFFF;" vertex="1" parent="1">
                    <mxGeometry x="420" y="630" width="40" height="40" as="geometry"/>
                </mxCell>
            </root>
        </mxGraphModel>
    </diagram>
</mxfile>